<?xml version="1.0" standalone="no"?><!DOCTYPE svg PUBLIC "-//W3C//DTD SVG 1.1//EN" "http://www.w3.org/Graphics/SVG/1.1/DTD/svg11.dtd"><svg t="1627476930166" class="icon" viewBox="0 0 1234 1024" version="1.1" xmlns="http://www.w3.org/2000/svg" p-id="1978" xmlns:xlink="http://www.w3.org/1999/xlink" width="24.1015625" height="20"><defs><style type="text/css">@font-face { font-family: feedback-iconfont; src: url("//at.alicdn.com/t/font_1031158_1uhr8ri0pk5.eot?#iefix") format("embedded-opentype"), url("//at.alicdn.com/t/font_1031158_1uhr8ri0pk5.woff2") format("woff2"), url("//at.alicdn.com/t/font_1031158_1uhr8ri0pk5.woff") format("woff"), url("//at.alicdn.com/t/font_1031158_1uhr8ri0pk5.ttf") format("truetype"), url("//at.alicdn.com/t/font_1031158_1uhr8ri0pk5.svg#iconfont") format("svg"); }
</style></defs><path d="M0.999777 150.090075a0.50086 0.50086 0 0 0-0.498907-0.499884 0.499884 0.499884 0 1 0 0.498907 0.499884z m0 0" p-id="1979" fill="#ffffff"></path><path d="M234.319508 550.645304a2.643916 2.643916 0 0 1-2.649774 2.641964h-82.100036a2.635129 2.635129 0 0 1-1.873588-0.777163 2.645869 2.645869 0 0 1-0.77521-1.864801v-86.072744a2.652703 2.652703 0 0 1 2.649774-2.651727h82.100036c0.701009 0 1.373704 0.278256 1.874564 0.779116 0.491097 0.492073 0.768376 1.171602 0.768376 1.872611v86.072744h0.005858z m0 318.612384a2.647821 2.647821 0 0 1-2.649774 2.642939h-82.100036a2.639034 2.639034 0 0 1-1.873588-0.777163 2.641963 2.641963 0 0 1-0.77521-1.865776v-86.071769a2.649774 2.649774 0 0 1 2.649774-2.648797h82.100036a2.643916 2.643916 0 0 1 2.64294 2.648797v86.071769h0.005858z m0-628.433844a2.649774 2.649774 0 0 1-2.649774 2.649774h-82.100036a2.682969 2.682969 0 0 1-1.873588-0.77521 2.679064 2.679064 0 0 1-0.77521-1.873588v-86.071768c0-1.464503 1.187224-2.651727 2.649774-2.651727h82.100036c0.701009 0 1.373704 0.28509 1.874564 0.77814 0.491097 0.50086 0.768376 1.172579 0.768376 1.873587v86.071768h0.005858z m852.928479-0.031243c0 1.479148-1.916546 2.68004-4.283183 2.680041H317.666324c-2.366637 0-4.29197-1.200892-4.29197-2.680041v-86.011235c0-1.478172 1.92631-2.681993 4.29197-2.681993h765.299457c2.366637 0 4.283183 1.203821 4.283183 2.681993v86.011235z m0 309.820484c0 1.479148-1.916546 2.673206-4.283183 2.673206H317.666324c-2.366637 0-4.284159-1.195034-4.284159-2.673206v-86.011235c0-1.487935 1.917523-2.681993 4.284159-2.681993h765.299457c2.366637 0 4.283183 1.194058 4.283183 2.681993v86.011235z m0 318.615313c0 1.477195-1.916546 2.671253-4.283183 2.671253H317.666324c-2.366637 0-4.284159-1.195034-4.284159-2.671253v-86.020023c0-1.477195 1.917523-2.671253 4.284159-2.671253h765.299457c2.366637 0 4.283183 1.195034 4.283183 2.671253v86.020023z m0 0" p-id="1980" fill="#ffffff"></path></svg>