<?xml version="1.0" standalone="no"?><!DOCTYPE svg PUBLIC "-//W3C//DTD SVG 1.1//EN" "http://www.w3.org/Graphics/SVG/1.1/DTD/svg11.dtd"><svg t="1627003258470" class="icon" viewBox="0 0 1024 1024" version="1.1" xmlns="http://www.w3.org/2000/svg" p-id="4493" width="20" height="20" xmlns:xlink="http://www.w3.org/1999/xlink"><defs><style type="text/css">@font-face { font-family: feedback-iconfont; src: url("//at.alicdn.com/t/font_1031158_1uhr8ri0pk5.eot?#iefix") format("embedded-opentype"), url("//at.alicdn.com/t/font_1031158_1uhr8ri0pk5.woff2") format("woff2"), url("//at.alicdn.com/t/font_1031158_1uhr8ri0pk5.woff") format("woff"), url("//at.alicdn.com/t/font_1031158_1uhr8ri0pk5.ttf") format("truetype"), url("//at.alicdn.com/t/font_1031158_1uhr8ri0pk5.svg#iconfont") format("svg"); }
</style></defs><path d="M497.3 119.8C280.1 119.8 104 295.9 104 513.1s176.1 393.3 393.3 393.3c217.2 0 393.3-176.1 393.3-393.3S714.5 119.8 497.3 119.8z m214.9 409.4c-0.5 0.5-1 0.9-1.5 1.3L537.8 703.4c-7.3 7.3-19.2 7.3-26.5 0-7.3-7.3-7.3-19.2 0-26.5l142.8-142.8H295c-9.9 0-18-8.1-18-18s8.1-18 18-18h359.6L505.8 349.3c-7.3-7.3-7.3-19.2 0-26.5 7.3-7.3 19.2-7.3 26.5 0l178.4 178.4c0.5 0.4 1 0.8 1.5 1.3 3.7 3.7 5.5 8.5 5.5 13.3-0.1 4.9-1.9 9.8-5.5 13.4z" fill="#263554" p-id="4494"></path></svg>