<?xml version="1.0" standalone="no"?><!DOCTYPE svg PUBLIC "-//W3C//DTD SVG 1.1//EN" "http://www.w3.org/Graphics/SVG/1.1/DTD/svg11.dtd"><svg t="1626688229295" class="icon" viewBox="0 0 1024 1024" version="1.1" xmlns="http://www.w3.org/2000/svg" p-id="2047" xmlns:xlink="http://www.w3.org/1999/xlink" width="200" height="200"><defs><style type="text/css"></style></defs><path d="M237.329067 823.022933c0 79.872 121.0368 149.4016 274.670933 149.4016 150.6304 0 269.9264-66.833067 274.5344-144.725333l0.136533-4.676267h60.654934C847.325867 936.686933 695.296 1024 512 1024 331.912533 1024 181.930667 939.656533 176.810667 828.893867l-0.136534-5.870934h60.654934zM512 0c185.207467 0 335.325867 150.1184 335.325867 335.325867 0 98.304-67.822933 224.768-202.615467 381.678933l-17.988267 20.650667-18.705066 20.992c-12.731733 14.097067-25.975467 28.433067-39.7312 43.008l-3.1744 3.208533c-31.095467 29.320533-80.0768 27.886933-109.4656-3.242667l-19.8656-21.2992c-9.728-10.581333-19.217067-20.992-28.433067-31.300266l-18.056533-20.48-17.3056-20.104534c-8.465067-9.966933-16.657067-19.797333-24.576-29.525333l-15.496534-19.285333c-103.287467-130.6624-155.2384-238.250667-155.2384-324.266667C176.674133 150.084267 326.792533 0 512 0z m0 51.575467a283.7504 283.7504 0 0 0-283.7504 283.7504c0 54.545067 27.101867 123.4944 81.544533 206.199466l11.264 16.725334c17.408 25.361067 37.307733 51.950933 59.630934 79.7696l15.291733 18.705066 7.8848 9.489067 16.384 19.2512 8.465067 9.762133 17.442133 19.797334 18.2272 20.138666c6.144 6.792533 12.4928 13.6192 18.909867 20.48l9.9328 10.615467a25.8048 25.8048 0 0 0 37.546666 0l19.319467-20.6848 18.568533-20.343467 17.851734-19.968c5.802667-6.587733 11.502933-13.141333 17.066666-19.626666l16.384-19.2512c5.358933-6.382933 10.581333-12.663467 15.6672-18.909867l14.916267-18.568533 14.165333-18.158934c4.608-6.007467 9.1136-11.946667 13.448534-17.8176l12.731733-17.476266c6.178133-8.635733 12.0832-17.134933 17.7152-25.4976l10.922667-16.554667c50.858667-79.086933 76.219733-145.3056 76.219733-198.075733A283.7504 283.7504 0 0 0 512 51.575467zM512 187.733333a141.7216 141.7216 0 1 1 0 283.409067A141.7216 141.7216 0 0 1 512 187.733333z m0 51.575467a90.112 90.112 0 1 0 0 180.224 90.112 90.112 0 0 0 0-180.224z" fill="#3586FF" p-id="2048"></path></svg>