<?xml version="1.0" standalone="no"?><!DOCTYPE svg PUBLIC "-//W3C//DTD SVG 1.1//EN" "http://www.w3.org/Graphics/SVG/1.1/DTD/svg11.dtd"><svg t="1626688261832" class="icon" viewBox="0 0 1024 1024" version="1.1" xmlns="http://www.w3.org/2000/svg" p-id="3725" xmlns:xlink="http://www.w3.org/1999/xlink" width="200" height="200"><defs><style type="text/css"></style></defs><path d="M929.46 717.37L762.81 550.72c-5.42-5.42-14.17-5.31-19.59 0.11l-0.1 0.1c-62.63 62.63-164.17 62.63-226.8 0-62.63-62.63-62.63-164.17 0-226.8l0.1-0.1c5.43-5.42 5.53-14.16 0.11-19.59L349.89 137.8c-25.67-25.67-67.3-25.67-92.97 0l-86.66 86.66c-46.49 46.49 106.21 292.93 242.32 429.04S796.32 943.49 842.8 897l86.66-86.66c25.68-25.67 25.68-67.3 0-92.97z" fill="#99D1FF" p-id="3726"></path><path d="M750.43 925.48c-13.45 0-29.32-2.9-47.76-8.69-32.04-10.07-72.82-29.37-117.93-55.81-88.57-51.92-185.42-126-252.75-193.34-67.28-67.28-141.14-163.91-192.76-252.18-26.28-44.94-45.44-85.59-55.4-117.55-13.08-41.94-11.17-70.6 5.84-87.6l86.66-86.66c16.19-16.19 37.73-25.11 60.63-25.11 22.9 0 44.43 8.92 60.63 25.11L464.24 290.3c6.43 6.43 9.94 14.99 9.87 24.09-0.07 8.98-3.62 17.43-9.99 23.79l-0.14 0.14c-54.68 54.68-54.68 143.73 0.05 198.46 54.73 54.73 143.78 54.73 198.52 0l0.09-0.09c6.36-6.38 14.81-9.92 23.79-9.99 9.09-0.12 17.66 3.43 24.09 9.87l166.65 166.65c16.19 16.19 25.11 37.73 25.11 60.63s-8.92 44.43-25.11 60.63l-86.66 86.66c-9.57 9.57-22.83 14.34-40.08 14.34zM236.96 138.54c-12.22 0-23.71 4.76-32.34 13.4l-86.66 86.66c-5.86 5.86-8.19 47.23 55.81 156.67 50.02 85.53 121.48 179.05 186.51 244.08 65.1 65.1 158.86 136.79 244.69 187.11 42.55 24.94 80.48 42.98 109.69 52.16 31.17 9.79 44.74 7.05 47.56 4.23l86.66-86.66c8.64-8.64 13.4-20.13 13.4-32.34s-4.76-23.71-13.4-32.34L686.57 569.2c-34.6 32.41-78.95 48.62-123.29 48.62-46.19 0-92.37-17.58-127.53-52.74-34.07-34.07-52.83-79.36-52.83-127.54 0-46.2 17.25-89.74 48.7-123.28L269.31 151.94c-8.64-8.64-20.13-13.4-32.35-13.4z m198.86 171.38l-0.02 0.02 0.02-0.02zM761.59 490.85c-11.05 0-20-8.95-20-20 0-116.7-94.94-211.64-211.64-211.64-11.05 0-20-8.95-20-20s8.95-20 20-20c67.22 0 130.41 26.18 177.94 73.7 47.53 47.53 73.7 110.72 73.7 177.94 0 11.04-8.95 20-20 20z" fill="#0072F0" p-id="3727"></path><path d="M882.28 500.27c-11.05 0-20-8.95-20-20 0-91.28-35.55-177.11-100.1-241.65-64.55-64.55-150.37-100.1-241.65-100.1-11.05 0-20-8.95-20-20s8.95-20 20-20c51.53 0 101.52 10.1 148.6 30.01 45.46 19.23 86.28 46.75 121.34 81.8 35.05 35.05 62.58 75.88 81.8 121.34 19.91 47.08 30.01 97.07 30.01 148.6 0 11.04-8.96 20-20 20z" fill="#0072F0" p-id="3728"></path></svg>